<svg xmlns="http://www.w3.org/2000/svg" width="45.967" height="45.967" viewBox="0 0 45.967 45.967">
  <path id="Big_Profile" data-name="Big Profile" d="M1442.983-604.033a22.946,22.946,0,0,1-11.815-3.266,12.29,12.29,0,0,1,11.816-9,12.29,12.29,0,0,1,11.816,9A22.948,22.948,0,0,1,1442.983-604.033Zm14.449-5.109v0a15.39,15.39,0,0,0-8.446-9,10.727,10.727,0,0,0,4.72-8.879,10.734,10.734,0,0,0-10.722-10.722,10.735,10.735,0,0,0-10.723,10.722,10.725,10.725,0,0,0,4.721,8.879,15.4,15.4,0,0,0-8.446,9A22.894,22.894,0,0,1,1420-627.017,23.009,23.009,0,0,1,1442.983-650a23.009,23.009,0,0,1,22.984,22.983,22.9,22.9,0,0,1-8.533,17.874Zm-14.448-10.233a7.665,7.665,0,0,1-7.656-7.656,7.664,7.664,0,0,1,7.656-7.655,7.664,7.664,0,0,1,7.655,7.655A7.664,7.664,0,0,1,1442.984-619.375Z" transform="translate(-1420 650)" fill="#3b2d57"/>
</svg>
