<svg xmlns="http://www.w3.org/2000/svg" width="16.714" height="16.714" viewBox="0 0 16.714 16.714">
  <path id="Tracé_149" data-name="Tracé 149" d="M2.089,5.223v9.4H14.625v-9.4ZM13.58,2.089h2.089a.987.987,0,0,1,1.045,1.045V15.669a.987.987,0,0,1-1.045,1.045H1.045A.987.987,0,0,1,0,15.669V3.134A.987.987,0,0,1,1.045,2.089H3.134V1.045A.987.987,0,0,1,4.178,0,.987.987,0,0,1,5.223,1.045V2.089h6.268V1.045a1.045,1.045,0,0,1,2.089,0ZM12.535,12.535H10.446V10.446h2.089Zm-3.134,0H7.312V10.446H9.4ZM12.535,9.4H10.446V7.312h2.089ZM9.4,9.4H7.312V7.312H9.4ZM6.268,12.535H4.178V10.446H6.268Z" fill="#3b2d57" fill-rule="evenodd"/>
</svg>
