<svg id="cible" xmlns="http://www.w3.org/2000/svg" width="49.471" height="49.471" viewBox="0 0 49.471 49.471">
  <g id="Groupe_1464" data-name="Groupe 1464" transform="translate(0 0)">
    <g id="Groupe_1463" data-name="Groupe 1463">
      <path id="Tracé_747" data-name="Tracé 747" d="M25.779,23.74c-.008-.009-.01-.02-.019-.028l-8.271-8.271v-5.2a1.449,1.449,0,0,0-.425-1.025L8.369.426A1.449,1.449,0,0,0,5.894,1.451V5.8H1.45A1.449,1.449,0,0,0,.425,8.273l8.793,8.793a1.448,1.448,0,0,0,1.025.425h5.2l8.271,8.271c.008.008.02.011.028.019a1.443,1.443,0,0,0,2.04-2.04Z" transform="translate(0 -0.001)" fill="#a5a4bf"/>
    </g>
  </g>
  <g id="Groupe_1466" data-name="Groupe 1466" transform="translate(0 0)">
    <g id="Groupe_1465" data-name="Groupe 1465">
      <path id="Tracé_748" data-name="Tracé 748" d="M24.738,0A24.518,24.518,0,0,0,14.366,2.419l4.446,4.446A18.888,18.888,0,1,1,6.866,18.811L2.42,14.365A24.522,24.522,0,0,0,0,24.737,24.736,24.736,0,1,0,24.738,0Z" transform="translate(-0.003 -0.002)" fill="#a5a4bf"/>
    </g>
  </g>
  <g id="Groupe_1468" data-name="Groupe 1468" transform="translate(11.692 11.691)">
    <g id="Groupe_1467" data-name="Groupe 1467">
      <path id="Tracé_749" data-name="Tracé 749" d="M134.046,121a12.891,12.891,0,0,0-4.348.8v1.746l3.351,3.351a7.135,7.135,0,0,1,1-.1,7.247,7.247,0,1,1-7.247,7.247,7.133,7.133,0,0,1,.1-1L123.55,129.7H121.8a12.891,12.891,0,0,0-.8,4.348A13.044,13.044,0,1,0,134.046,121Z" transform="translate(-121.002 -121.001)" fill="#a5a4bf"/>
    </g>
  </g>
</svg>
