<svg id="clap" xmlns="http://www.w3.org/2000/svg" width="23.982" height="23.983" viewBox="0 0 23.982 23.983">
  <path id="Tracé_805" data-name="Tracé 805" d="M407.986,356v6.4a.8.8,0,0,1-.8.8H388.8a.8.8,0,0,1-.8-.8V356Z" transform="translate(-385.603 -340.81)" fill="#3b2d57" fill-rule="evenodd"/>
  <path id="Tracé_806" data-name="Tracé 806" d="M385.8,347.511v11.074a2.4,2.4,0,0,0,2.4,2.4h18.387a2.4,2.4,0,0,0,2.4-2.4V347.4a.8.8,0,0,0-.8-.8H392.19l5.915-1.714a.768.768,0,0,0,.165-.048l8.75-2.536a.8.8,0,0,0,.543-1l-.8-2.659a2.319,2.319,0,0,0-2.866-1.557l-17.048,4.94a2.557,2.557,0,0,0-1.736,3.195Zm18.839.692L403.2,350.59h4.182V348.2Zm-12.628,2.387h3.73l1.436-2.387h-3.73Zm-4.612,0h2.746l1.436-2.387H387.4Zm10.208,0h3.73l1.436-2.387h-3.73Zm-8.4-7.576,2.268,2.134-4.338,1.257-.495-1.639a.958.958,0,0,1,.651-1.2Zm1.784-.517,2.268,2.134,3.136-.909-2.268-2.134Zm4.92-1.426,2.268,2.134,3.547-1.028-2.268-2.134Zm7.6.589-2.268-2.134,3.1-.9a.72.72,0,0,1,.891.484L405.8,341Z" transform="translate(-385.002 -336.999)" fill="#3b2d57" fill-rule="evenodd"/>
</svg>
