<svg xmlns="http://www.w3.org/2000/svg" width="20.15" height="20.15" viewBox="0 0 20.15 20.15">
  <path id="Tracé_793" data-name="Tracé 793" d="M16.75,6.549,18.135,3.9,16.372,2.141,13.727,3.526a4.512,4.512,0,0,0-1.385-.5L11.335,0H8.816L7.808,2.9a5.263,5.263,0,0,0-1.259.5L3.9,2.015,2.015,3.9,3.4,6.549a5.263,5.263,0,0,0-.5,1.259L0,8.816v2.519l2.9,1.008c.126.5.378.882.5,1.385L2.015,16.372l1.763,1.763L6.423,16.75a4.512,4.512,0,0,0,1.385.5l1.008,2.9h2.519l1.008-2.9c.5-.126.882-.378,1.385-.5l2.645,1.385,1.763-1.763L16.75,13.727a4.512,4.512,0,0,0,.5-1.385l2.9-1.008V8.816l-2.9-1.008A5.263,5.263,0,0,0,16.75,6.549Zm-6.675,7.3A3.711,3.711,0,0,1,6.3,10.075,3.711,3.711,0,0,1,10.075,6.3a3.711,3.711,0,0,1,3.778,3.778A3.711,3.711,0,0,1,10.075,13.853Z" fill="#a5a4bf"/>
</svg>
