<svg xmlns="http://www.w3.org/2000/svg" width="19.113" height="23.358" viewBox="0 0 19.113 23.358">
  <g id="corbeille" transform="translate(-6 -2)">
    <path id="Tracé_762" data-name="Tracé 762" d="M23.521,4.124H18.742V3.593A1.593,1.593,0,0,0,17.149,2H13.433A1.593,1.593,0,0,0,11.84,3.593v.531H7.593A1.593,1.593,0,0,0,6,5.716v.531A1.593,1.593,0,0,0,7.593,7.84H23.521a1.593,1.593,0,0,0,1.593-1.593V5.716A1.593,1.593,0,0,0,23.521,4.124Zm-10.618,0V3.593a.531.531,0,0,1,.531-.531h3.716a.531.531,0,0,1,.531.531v.531Z" transform="translate(0)" fill="#3b2d57"/>
    <path id="Tracé_763" data-name="Tracé 763" d="M24.486,14.953H8.559a2.67,2.67,0,0,1-.5-.053l.435,13.937a2.642,2.642,0,0,0,2.655,2.572H21.9a2.642,2.642,0,0,0,2.655-2.572L24.987,14.9a2.67,2.67,0,0,1-.5.053Zm-11.4,13.273h-.015a.531.531,0,0,1-.531-.516l-.265-9.557a.531.531,0,1,1,1.062-.03L13.6,27.68A.531.531,0,0,1,13.086,28.226Zm3.967-.531a.531.531,0,1,1-1.062,0V18.139a.531.531,0,1,1,1.062,0Zm3.451.015a.531.531,0,0,1-.531.516h-.015a.531.531,0,0,1-.516-.546l.265-9.557a.516.516,0,0,1,.546-.516.531.531,0,0,1,.516.546Z" transform="translate(-0.966 -6.051)" fill="#3b2d57"/>
  </g>
</svg>
