<svg id="google-docs" xmlns="http://www.w3.org/2000/svg" width="17.785" height="23.348" viewBox="0 0 17.785 23.348">
  <path id="Tracé_694" data-name="Tracé 694" d="M63.052,23.348H76.733A2.054,2.054,0,0,0,78.785,21.3V6.84H74a2.054,2.054,0,0,1-2.052-2.052V0H63.052A2.054,2.054,0,0,0,61,2.052V21.3A2.054,2.054,0,0,0,63.052,23.348ZM65.788,9.622H74a.684.684,0,0,1,0,1.368H65.788a.684.684,0,0,1,0-1.368Zm0,2.736H74a.684.684,0,0,1,0,1.368H65.788a.684.684,0,0,1,0-1.368Zm0,2.736H74a.684.684,0,0,1,0,1.368H65.788a.684.684,0,0,1,0-1.368Zm0,2.736H71.26a.684.684,0,0,1,0,1.368H65.788a.684.684,0,0,1,0-1.368Z" transform="translate(-61)" fill="#a5a4bf"/>
  <path id="Tracé_695" data-name="Tracé 695" d="M331.684,13.86h4.387L331,8.789v4.387A.685.685,0,0,0,331.684,13.86Z" transform="translate(-318.688 -8.388)" fill="#a5a4bf"/>
</svg>
