<svg xmlns="http://www.w3.org/2000/svg" xmlns:xlink="http://www.w3.org/1999/xlink" width="24.198" height="24.198" viewBox="0 0 24.198 24.198">
  <defs>
    <clipPath id="clip-path">
      <path id="Tracé_761" data-name="Tracé 761" d="M0,0H24.2V24.2H0Z" fill="none"/>
    </clipPath>
  </defs>
  <g id="domaine" clip-path="url(#clip-path)">
    <path id="Tracé_759" data-name="Tracé 759" d="M16.821,9.679c.073.761.117,1.563.117,2.42a1.21,1.21,0,0,1-2.42,0,22.879,22.879,0,0,0-.127-2.42H9.79a23.5,23.5,0,0,0,0,4.84H12.1a1.21,1.21,0,0,1,0,2.42H10.182a15.07,15.07,0,0,0,1.918,4.84s.955.016,1.12,0a1.21,1.21,0,0,1,.177,2.414c-.114.008-1.3,0-1.3,0A12.1,12.1,0,1,1,24.2,12.1a11.551,11.551,0,0,1-.1,1.35,1.211,1.211,0,0,1-2.4-.282,8.9,8.9,0,0,0,.08-1.068,9.67,9.67,0,0,0-.318-2.42ZM12.084,2.463a15.422,15.422,0,0,0-1.892,4.8h3.8a15.36,15.36,0,0,0-1.9-4.8ZM2.738,14.519H7.359c-.07-.761-.115-1.561-.115-2.415q0-1.214.116-2.425H2.738a9.36,9.36,0,0,0,0,4.84Zm.991,2.42A9.717,9.717,0,0,0,9.1,21.3a19.713,19.713,0,0,1-1.389-4.357ZM7.711,7.259A19.643,19.643,0,0,1,9.1,2.9,9.715,9.715,0,0,0,3.729,7.259Zm8.758,0h4a9.714,9.714,0,0,0-5.4-4.37A19.513,19.513,0,0,1,16.469,7.259Z" fill="#3b2d57" fill-rule="evenodd"/>
    <path id="Tracé_760" data-name="Tracé 760" d="M15.768,20.272l-3.085-6.788a.6.6,0,0,1,.8-.8l6.788,3.085a.6.6,0,0,1,.02,1.092l-2.108,1.054a.605.605,0,0,0-.271.271L16.86,20.292a.6.6,0,0,1-1.092-.02Z" transform="translate(2.65 2.65)" fill="#3b2d57"/>
  </g>
</svg>
