<svg xmlns="http://www.w3.org/2000/svg" width="22" height="22" viewBox="0 0 22 22">
  <g id="Layer_2" data-name="Layer 2" transform="translate(-1 -1)">
    <path id="Tracé_782" data-name="Tracé 782" d="M3.625,23h9.75A2.629,2.629,0,0,0,16,20.375V7.625A2.629,2.629,0,0,0,13.375,5H3.625A2.629,2.629,0,0,0,1,7.625v12.75A2.629,2.629,0,0,0,3.625,23ZM3,7.625A.625.625,0,0,1,3.625,7h9.75A.625.625,0,0,1,14,7.625v12.75a.625.625,0,0,1-.625.625H3.625A.625.625,0,0,1,3,20.375Z" fill="#3b2d57"/>
    <path id="Tracé_783" data-name="Tracé 783" d="M20.37,1H10.63A2.629,2.629,0,0,0,8.209,2.61a1,1,0,0,0,1.842.78A.63.63,0,0,1,10.63,3h9.74a.631.631,0,0,1,.63.63V16.37a.631.631,0,0,1-.63.63H18a1,1,0,0,0,0,2h2.37A2.633,2.633,0,0,0,23,16.37V3.63A2.633,2.633,0,0,0,20.37,1Z" fill="#3b2d57"/>
  </g>
</svg>
