<svg xmlns="http://www.w3.org/2000/svg" width="25.382" height="19.037" viewBox="0 0 25.382 19.037">
  <path id="Eye_Icon" data-name="Eye Icon" d="M212-711.605S217.683-721,224.691-721s12.691,9.395,12.691,9.395-5.682,9.642-12.691,9.642S212-711.605,212-711.605Zm6.345.124a6.346,6.346,0,0,0,6.346,6.346,6.346,6.346,0,0,0,6.346-6.346,6.346,6.346,0,0,0-6.346-6.346A6.346,6.346,0,0,0,218.345-711.482Zm3.173.013a3.172,3.172,0,0,1,3.172-3.172,3.172,3.172,0,0,1,3.173,3.172,3.172,3.172,0,0,1-3.173,3.172A3.172,3.172,0,0,1,221.519-711.469Z" transform="translate(-212 721)" fill="#3b2d57"/>
</svg>
