<svg xmlns="http://www.w3.org/2000/svg" width="21.27" height="21.301" viewBox="0 0 21.27 21.301">
  <g id="lancement-de-fusee-spatiale" transform="translate(-0.243 0)">
    <g id="Layer_5_87_" transform="translate(0.243 0)">
      <g id="Groupe_1411" data-name="Groupe 1411" transform="translate(0 0)">
        <path id="Tracé_691" data-name="Tracé 691" d="M36.539,208.23c-.325-.325-.448-.162-.52-.089-1.874,1.874-3.538,6.4-2.659,5.955,3.2-1.608,3.736-1.129,5.61-3,.072-.072.239-.192-.1-.527Z" transform="translate(-31.014 -194.719)" fill="#a5a4bf"/>
        <path id="Tracé_692" data-name="Tracé 692" d="M15.872,13.486A.435.435,0,0,1,16.04,13C20.177,8.538,22.806,2.588,20.858.639s-7.7.768-12.17,4.875a.6.6,0,0,1-.574.17L6.723,5.354A1.44,1.44,0,0,0,5.51,5.7l-5.1,5.1c-.281.281-.19.561.2.623L4.3,12a1.6,1.6,0,0,0,1.224-.4.264.264,0,0,1,.382,0L9.93,15.63a.267.267,0,0,1,.008.39,1.6,1.6,0,0,0-.4,1.224l.58,3.692c.062.392.342.484.623.2l5.1-5.1a1.439,1.439,0,0,0,.343-1.213ZM14.73,6.891a2.214,2.214,0,1,1,3.131,0A2.214,2.214,0,0,1,14.73,6.891Z" transform="translate(-0.243 0)" fill="#a5a4bf"/>
      </g>
    </g>
  </g>
</svg>
