<svg xmlns="http://www.w3.org/2000/svg" width="21.593" height="16.735" viewBox="0 0 21.593 16.735">
  <path id="Image_Small" data-name="Image Small" d="M1765.806-512a1.808,1.808,0,0,0-1.806,1.806v12.123a1.808,1.808,0,0,0,1.806,1.806h16.981a1.808,1.808,0,0,0,1.805-1.806v-12.123a1.808,1.808,0,0,0-1.805-1.806Zm16.938,14.488H1781.1l-3.031-2.848,2.271-1.881,3.009,2.423v1.7A.588.588,0,0,1,1782.744-497.512Zm-3.291,0h-13.69a.589.589,0,0,1-.6-.6v-2.649l5.46-5.047,8.832,8.3Zm-2.238-3.647-6.595-6.2-5.46,5.059v-7.94a.589.589,0,0,1,.6-.6h16.981a.589.589,0,0,1,.6.6v8.994l-3.009-2.459-3.121,2.543Zm.112-8.39a2.4,2.4,0,0,0-2.364,2.365,2.367,2.367,0,0,0,2.364,2.365,2.4,2.4,0,0,0,2.365-2.365A2.4,2.4,0,0,0,1777.327-509.55Zm0,3.569a1.248,1.248,0,0,1-1.247-1.247,1.248,1.248,0,0,1,1.247-1.247,1.248,1.248,0,0,1,1.247,1.247A1.248,1.248,0,0,1,1777.327-505.981Z" transform="translate(-1763.5 512.5)" fill="#a5a4bf" stroke="#a5a4bf" stroke-width="1"/>
</svg>
