<svg xmlns="http://www.w3.org/2000/svg" width="16.281" height="21.369" viewBox="0 0 16.281 21.369">
  <path id="Lock" d="M14.246,7.123H13.229V5.088A5.039,5.039,0,0,0,8.141,0,5.039,5.039,0,0,0,3.053,5.088V7.123H2.035A2.041,2.041,0,0,0,0,9.158V19.334a2.041,2.041,0,0,0,2.035,2.035H14.246a2.041,2.041,0,0,0,2.035-2.035V9.158a2.041,2.041,0,0,0-2.035-2.035ZM8.141,1.933A3.17,3.17,0,0,1,11.3,5.088V7.123H5.088V5.088h-.1A3.17,3.17,0,0,1,8.141,1.933Zm6.106,17.4H2.035V9.158H14.246V19.334ZM8.141,16.281a2.035,2.035,0,1,0-2.035-2.035,2.041,2.041,0,0,0,2.035,2.035Z" fill="#3b2d57" fill-rule="evenodd"/>
</svg>
