<svg xmlns="http://www.w3.org/2000/svg" width="51" height="44.205" viewBox="0 0 51 44.205">
  <path id="megaphone" d="M26.53,47.988l-1.449.387A2.721,2.721,0,0,1,22.144,47.3l-6.2-8.844,10.425,1.112,1.979,4.713A2.744,2.744,0,0,1,26.53,47.988ZM6.405,20.05l-3.366.908a4.1,4.1,0,0,0-2.9,5.019l2.132,7.956a4.084,4.084,0,0,0,5.019,2.886l3.366-.9ZM39.949,36.077,31.7,5.277a1.365,1.365,0,0,0-2.123-.751L9.359,19.263l4.251,15.866,24.875,2.657a1.364,1.364,0,0,0,1.463-1.709Zm1.252-25.5A1.366,1.366,0,0,1,40.02,8.524l1.974-3.418a1.365,1.365,0,0,1,2.364,1.365L42.384,9.889A1.365,1.365,0,0,1,41.2,10.572Zm1.949,9.506a1.366,1.366,0,0,1-.352-2.685l3.812-1.021a1.366,1.366,0,1,1,.708,2.638l-3.812,1.021A1.378,1.378,0,0,1,43.15,20.078Zm6.483,11.181a1.355,1.355,0,0,1-.681-.183L45.534,29.1A1.365,1.365,0,1,1,46.9,26.737l3.418,1.974a1.365,1.365,0,0,1-.684,2.548Z" transform="translate(0 -4.263)" fill="#a5a4bf"/>
</svg>
