<svg xmlns="http://www.w3.org/2000/svg" width="23.787" height="27.186" viewBox="0 0 23.787 27.186">
  <path id="icon_money-bag" d="M5.381,27.186a5.707,5.707,0,0,1-4.7-2.549,5.131,5.131,0,0,1,0-5.1l5.97-10.2a1.929,1.929,0,0,1,1.628-.85h7.235a1.929,1.929,0,0,1,1.628.85l5.97,10.2a5.12,5.12,0,0,1,0,5.1,5.707,5.707,0,0,1-4.7,2.549ZM8.276,5.1a1.7,1.7,0,0,1-1.267-.509L5.2,2.889A1.656,1.656,0,0,1,6.467,0H17.319a1.687,1.687,0,0,1,1.267,2.889l-1.809,1.7a1.693,1.693,0,0,1-1.267.509Z" transform="translate(0 0)" fill="#a5a4bf"/>
</svg>
