<svg xmlns="http://www.w3.org/2000/svg" width="57.555" height="45.574" viewBox="0 0 57.555 45.574">
  <g id="Open_Folder" data-name="Open Folder" transform="translate(0 -5)">
    <path id="Tracé_738" data-name="Tracé 738" d="M56.714,18.846A3.582,3.582,0,0,0,53.569,17H19.477a5.312,5.312,0,0,0-5.1,3.825L7.629,43.961A5.863,5.863,0,0,1,2,48.182H44.873A5.865,5.865,0,0,0,50.5,43.96L56.981,21.75A3.767,3.767,0,0,0,56.714,18.846Z" transform="translate(0.399 2.392)" fill="#3b2d57"/>
    <path id="Tracé_739" data-name="Tracé 739" d="M5.721,45.681l6.752-23.135a7.736,7.736,0,0,1,7.4-5.553h30.5v-1.2a4.8,4.8,0,0,0-4.8-4.8H27.291a2.4,2.4,0,0,1-1.866-.887l-2.358-2.9A5.99,5.99,0,0,0,18.422,5H4.8A4.8,4.8,0,0,0,0,9.8v35.98a2.4,2.4,0,0,0,2.4,2.4,3.472,3.472,0,0,0,3.322-2.495Z" fill="#3b2d57"/>
  </g>
</svg>
