<svg xmlns="http://www.w3.org/2000/svg" width="14.715" height="25.751" viewBox="0 0 14.715 25.751">
  <g id="panneau-daffichage" transform="translate(-16 -4)">
    <path id="Tracé_753" data-name="Tracé 753" d="M29.6,51.345V49H26.839v2.345A2.3,2.3,0,0,0,25,53.6a.461.461,0,0,0,.46.46h5.518a.461.461,0,0,0,.46-.46A2.3,2.3,0,0,0,29.6,51.345Z" transform="translate(-4.861 -24.307)" fill="#3b2d57"/>
    <path id="Tracé_754" data-name="Tracé 754" d="M28.875,4H17.839A1.839,1.839,0,0,0,16,5.839V21.934a1.839,1.839,0,0,0,1.839,1.839H28.875a1.839,1.839,0,0,0,1.839-1.839V5.839A1.839,1.839,0,0,0,28.875,4Zm0,17.474a.461.461,0,0,1-.46.46H18.3a.461.461,0,0,1-.46-.46V6.3a.461.461,0,0,1,.46-.46H28.416a.461.461,0,0,1,.46.46Z" fill="#3b2d57"/>
    <path id="Tracé_755" data-name="Tracé 755" d="M22,10h9.2V24.255H22Z" transform="translate(-3.241 -3.241)" fill="#3b2d57"/>
  </g>
</svg>
