<svg xmlns="http://www.w3.org/2000/svg" width="22.627" height="21.091" viewBox="0 0 22.627 21.091">
  <g id="_x31_2-archive" transform="translate(-2 -2.9)">
    <g id="Groupe_1454" data-name="Groupe 1454" transform="translate(2 2.9)">
      <path id="Tracé_722" data-name="Tracé 722" d="M3.9,10.6V24.661a.763.763,0,0,0,.808.808h17.94a.763.763,0,0,0,.808-.808V10.6Zm13.01,5.172H10.446a.808.808,0,0,1,0-1.616H16.91a.808.808,0,0,1,0,1.616Z" transform="translate(-2.365 -4.378)" fill="#a5a4bf"/>
      <path id="Tracé_723" data-name="Tracé 723" d="M24.627,7.506v-3.8a.763.763,0,0,0-.808-.808H2.808A.763.763,0,0,0,2,3.708v3.8Z" transform="translate(-2 -2.9)" fill="#a5a4bf"/>
    </g>
  </g>
</svg>
