<svg id="communique-de-presse" xmlns="http://www.w3.org/2000/svg" width="27.307" height="22.342" viewBox="0 0 27.307 22.342">
  <path id="Tracé_802" data-name="Tracé 802" d="M41.862,11H40V28.377a1.862,1.862,0,0,0,3.724,0V12.862A1.862,1.862,0,0,0,41.862,11Z" transform="translate(-16.417 -7.897)" fill="#3b2d57"/>
  <path id="Tracé_803" data-name="Tracé 803" d="M8,15h5.585v4.965H8Z" transform="translate(-4.276 -9.415)" fill="#3b2d57"/>
  <path id="Tracé_804" data-name="Tracé 804" d="M24.342,26.48v-18A2.482,2.482,0,0,0,21.859,6H4.482A2.482,2.482,0,0,0,2,8.482v18a1.862,1.862,0,0,0,1.862,1.862H24.978A3.071,3.071,0,0,1,24.342,26.48ZM4.482,11.585a1.241,1.241,0,0,1,1.241-1.241h5.585a1.241,1.241,0,0,1,1.241,1.241V16.55a1.241,1.241,0,0,1-1.241,1.241H5.724A1.241,1.241,0,0,1,4.482,16.55ZM21.239,24H5.1a.621.621,0,1,1,0-1.241H21.239a.621.621,0,1,1,0,1.241Zm0-3.1H5.1a.621.621,0,1,1,0-1.241H21.239a.621.621,0,1,1,0,1.241Zm0-3.1H15.033a.621.621,0,1,1,0-1.241h6.206a.621.621,0,1,1,0,1.241Zm0-3.1H15.033a.621.621,0,1,1,0-1.241h6.206a.621.621,0,1,1,0,1.241Zm0-3.1H15.033a.621.621,0,1,1,0-1.241h6.206a.621.621,0,1,1,0,1.241Z" transform="translate(-2 -6)" fill="#3b2d57"/>
</svg>
