<svg xmlns="http://www.w3.org/2000/svg" width="27.844" height="27.078" viewBox="0 0 27.844 27.078">
  <path id="radio" d="M25.8,16.28h-.561L7.31,7.974a.518.518,0,0,0-.448.935l14.91,7.372H2.045A2.045,2.045,0,0,0,0,18.325V32.959A2.045,2.045,0,0,0,2.045,35H25.8a2.045,2.045,0,0,0,2.045-2.045V18.325A2.045,2.045,0,0,0,25.8,16.28ZM7.57,31.07A5.034,5.034,0,1,1,12.6,26.036,5.034,5.034,0,0,1,7.57,31.07Zm8.563,1.1a1.224,1.224,0,1,1,1.224-1.224,1.224,1.224,0,0,1-1.224,1.224Zm3.934,0a1.224,1.224,0,1,1,1.224-1.224A1.224,1.224,0,0,1,20.067,32.168Zm3.934.04a1.224,1.224,0,1,1,1.224-1.224A1.224,1.224,0,0,1,24,32.208Zm1.306-6.372a1.352,1.352,0,0,1-1.352,1.352h-7.92a1.352,1.352,0,0,1-1.352-1.352V21.468a1.352,1.352,0,0,1,1.352-1.352h7.92a1.352,1.352,0,0,1,1.352,1.351Z" transform="translate(0 -7.925)" fill="#3b2d57"/>
</svg>
