<svg xmlns="http://www.w3.org/2000/svg" width="11.907" height="15.876" viewBox="0 0 11.907 15.876">
  <g id="sablier" transform="translate(-64)">
    <g id="Groupe_1430" data-name="Groupe 1430" transform="translate(64)">
      <g id="Groupe_1429" data-name="Groupe 1429">
        <path id="Tracé_707" data-name="Tracé 707" d="M75.246,3.194V1.8A1.318,1.318,0,0,0,75.907.662V.331A.331.331,0,0,0,75.577,0H64.331A.331.331,0,0,0,64,.331V.662A1.319,1.319,0,0,0,64.662,1.8V3.194a4.637,4.637,0,0,0,1.533,3.442l1.447,1.3-1.447,1.3a4.637,4.637,0,0,0-1.533,3.442v1.393A1.319,1.319,0,0,0,64,15.215v.331a.331.331,0,0,0,.331.331H75.577a.331.331,0,0,0,.331-.331v-.331a1.319,1.319,0,0,0-.662-1.139V12.683a4.637,4.637,0,0,0-1.533-3.442l-1.447-1.3,1.447-1.3A4.637,4.637,0,0,0,75.246,3.194ZM72.828,5.652,70.834,7.447a.661.661,0,0,0,0,.983l1.994,1.794a3.314,3.314,0,0,1,1.095,2.459v1.209H73.1l-2.878-3.837a.342.342,0,0,0-.529,0l-2.877,3.837h-.827V12.683a3.313,3.313,0,0,1,1.1-2.459L69.073,8.43a.661.661,0,0,0,0-.983L67.08,5.652a3.313,3.313,0,0,1-1.1-2.459V1.985h7.938V3.194A3.314,3.314,0,0,1,72.828,5.652Z" transform="translate(-64)" fill="#3b2d57"/>
        <path id="Tracé_708" data-name="Tracé 708" d="M176.694,149.333h-4.56a.331.331,0,0,0-.245.553l2.3,2.125a.33.33,0,0,0,.444,0l2.3-2.125a.331.331,0,0,0-.245-.553Z" transform="translate(-168.461 -144.702)" fill="#3b2d57"/>
      </g>
    </g>
  </g>
</svg>
