<svg xmlns="http://www.w3.org/2000/svg" width="57" height="47.968" viewBox="0 0 57 47.968">
  <g id="silhouette-dutilisateurs-multiples" transform="translate(0 -6.348)">
    <path id="Tracé_750" data-name="Tracé 750" d="M34.4,14.581a10.357,10.357,0,0,1,4.82,7.695,8.356,8.356,0,1,0-4.82-7.695ZM28.92,31.7a8.359,8.359,0,1,0-8.361-8.359A8.36,8.36,0,0,0,28.92,31.7Zm3.546.57H25.373a10.716,10.716,0,0,0-10.7,10.7v8.675l.022.136.6.187a48.722,48.722,0,0,0,14.553,2.347c7.867,0,12.426-2.243,12.707-2.386l.558-.282h.06V42.972A10.713,10.713,0,0,0,32.467,32.267ZM46.3,23.637H39.258a10.3,10.3,0,0,1-3.18,7.176,12.719,12.719,0,0,1,9.085,12.171v2.673c6.95-.255,10.955-2.224,11.219-2.357l.558-.283H57V34.34A10.715,10.715,0,0,0,46.3,23.637Zm-32.045-.569a8.3,8.3,0,0,0,4.446-1.29,10.346,10.346,0,0,1,3.889-6.6c.009-.156.023-.312.023-.469a8.359,8.359,0,1,0-8.358,8.358Zm7.508,7.745a10.309,10.309,0,0,1-3.178-7.136c-.261-.019-.519-.04-.785-.04H10.7A10.716,10.716,0,0,0,0,34.34v8.676l.022.134.6.189A50.185,50.185,0,0,0,12.673,45.6v-2.62A12.721,12.721,0,0,1,21.759,30.813Z" fill="#a5a4bf"/>
  </g>
</svg>
