<svg xmlns="http://www.w3.org/2000/svg" width="51.016" height="51.016" viewBox="0 0 51.016 51.016">
  <path id="Slider_Video" data-name="Slider Video" d="M1630.508-515A25.537,25.537,0,0,0,1605-489.491a25.537,25.537,0,0,0,25.508,25.508,25.537,25.537,0,0,0,25.508-25.508A25.537,25.537,0,0,0,1630.508-515Zm0,48.466a22.983,22.983,0,0,1-22.957-22.957,22.983,22.983,0,0,1,22.957-22.957,22.983,22.983,0,0,1,22.957,22.957A22.983,22.983,0,0,1,1630.508-466.534Zm-4.744-30.661v15.509l13.009-7.856-13.009-7.653Z" transform="translate(-1605 515)" fill="#fff"/>
</svg>
