<svg xmlns="http://www.w3.org/2000/svg" width="19" height="19" viewBox="0 0 19 19">
  <path id="Union_18" data-name="Union 18" d="M15.438,19a1.122,1.122,0,0,1-1.188-1.187V7.125a1.122,1.122,0,0,1,1.188-1.187h2.375A1.122,1.122,0,0,1,19,7.125V17.813A1.122,1.122,0,0,1,17.813,19ZM8.313,19a1.121,1.121,0,0,1-1.187-1.187V1.187A1.122,1.122,0,0,1,8.313,0h2.375a1.122,1.122,0,0,1,1.187,1.187V17.813A1.121,1.121,0,0,1,10.687,19ZM1.187,19A1.122,1.122,0,0,1,0,17.813V13.063a1.123,1.123,0,0,1,1.187-1.188H3.562a1.123,1.123,0,0,1,1.188,1.188v4.749A1.122,1.122,0,0,1,3.562,19Z" fill="#a5a4bf"/>
</svg>
