<svg xmlns="http://www.w3.org/2000/svg" width="22.015" height="20.319" viewBox="0 0 22.015 20.319">
  <g id="Groupe_4" data-name="Groupe 4" transform="translate(-304 -102.205)">
    <path id="Tracé_4" data-name="Tracé 4" d="M325.167,142.206h-1.7a.8.8,0,0,0-.842.848v2.117a.4.4,0,0,1-.427.421h-14.39a.4.4,0,0,1-.427-.421v-2.117a.8.8,0,0,0-.848-.848h-1.69a.8.8,0,0,0-.848.848v5.076a.8.8,0,0,0,.848.848h20.319a.8.8,0,0,0,.848-.848v-5.076a.8.8,0,0,0-.848-.848Zm0,0" transform="translate(0 -26.453)" fill="#3b2d57"/>
    <path id="Tracé_5" data-name="Tracé 5" d="M1.438,7.706a.767.767,0,0,0,.592.253.769.769,0,0,0,.595-.253l.843-.848a.457.457,0,0,1,.765.34v5.585a.8.8,0,0,0,.848.848h1.69a.8.8,0,0,0,.848-.848V7.2a.467.467,0,0,1,.761-.34l.848.848a.822.822,0,0,0,1.186,0L11.6,6.519a.824.824,0,0,0,0-1.186L6.519.252A.916.916,0,0,0,5.924,0a.905.905,0,0,0-.59.252L.252,5.333a.824.824,0,0,0,0,1.186Zm0,0" transform="translate(320.934 115.835) rotate(180)" fill="#3b2d57"/>
  </g>
</svg>
