<svg xmlns="http://www.w3.org/2000/svg" width="200" height="38.859" viewBox="0 0 200 38.859">
  <g id="verywell_logo_2024_CMJN_verywell_logo_2024_blanc" transform="translate(-164.6 -141.5)">
    <g id="Calque_1" transform="translate(164.6 141.5)">
      <g id="Groupe_1424" data-name="Groupe 1424" transform="translate(0 0)">
        <path id="Tracé_697" data-name="Tracé 697" d="M194.457,189.376a15.937,15.937,0,0,1-4.031,8.928,30.889,30.889,0,0,1-5.559,5.154l-.074.055-.074-.055a29.292,29.292,0,0,1-3.166-2.614l-.092-.092.092-.092c4.62-4.9,5.6-9.314,5.6-12.149s-.423-2.743-1.233-3.884l-.074-.092.092-.074a5.23,5.23,0,0,1,3.313-1.2,5.138,5.138,0,0,1,3.148,1.049l-.9-2.227a6.929,6.929,0,0,0-2.246-.387,6.831,6.831,0,0,0-4.381,1.6l-.092.074-.092-.074a6.8,6.8,0,0,0-8.725,0l-.092.074-.092-.074a6.793,6.793,0,0,0-11.174,5.191c0,9.572,10.4,16.309,10.842,16.585l.423.258.423-.258a30.415,30.415,0,0,0,3.958-3.148l.092-.092.092.092a27.48,27.48,0,0,0,3.958,3.148l.423.258.423-.258c.387-.239,8.3-5.375,10.364-13.014l-1.1-2.706Zm-15.334,11.468a33.475,33.475,0,0,1-3.166,2.614l-.074.055-.074-.055a30.273,30.273,0,0,1-5.559-5.154c-2.687-3.258-4.068-6.553-4.068-9.793a5.044,5.044,0,0,1,5.246-5.246c2.89,0,2.375.423,3.313,1.2l.092.074-.074.092a6.672,6.672,0,0,0-1.233,3.884c0,2.835.976,7.253,5.6,12.149l.092.092Zm1.215-1.2-.092-.092c-4.252-4.547-5.154-8.5-5.154-11.026s.534-2.651,1.473-3.645a5.539,5.539,0,0,1,3.774-1.6,5.63,5.63,0,0,1,3.774,1.6,5.215,5.215,0,0,1,1.473,3.645c0,4.584-2.8,8.523-5.154,11.026Z" transform="translate(-164.6 -174.3)" fill="#3b2d57"/>
        <g id="Groupe_1423" data-name="Groupe 1423" transform="translate(28.716)">
          <path id="Tracé_698" data-name="Tracé 698" d="M346.334,181.6l-9.222,22.936h-7.161L320.6,181.6h8.652l4.344,13.585,4.289-13.585Z" transform="translate(-320.6 -174.219)" fill="#3b2d57"/>
          <path id="Tracé_699" data-name="Tracé 699" d="M460.562,177.418a12.443,12.443,0,0,0-9.554,4.123l-2.872,7.142c-.018.313-.037.607-.037.92,0,7.013,5.3,12.241,12.462,12.241s10.4-3.277,12.02-8.5h-7.86a4.6,4.6,0,0,1-4.142,2.154A4.915,4.915,0,0,1,455.9,191.5h17.027a13.614,13.614,0,0,0,.166-2.1h0c0-6.737-5.117-12-12.517-12Zm-4.528,9.719a4.45,4.45,0,0,1,4.547-3.534,4.674,4.674,0,0,1,4.731,3.534Z" transform="translate(-424.63 -170.792)" fill="#3b2d57"/>
          <path id="Tracé_700" data-name="Tracé 700" d="M606.291,181.118a7.336,7.336,0,0,0-5.357,2.614l-1.233-2.54h-5.3v22.936h7.9V192.458c0-2.927,1.178-4.16,3.976-4.16h3.258l-3.24-7.2Z" transform="translate(-544 -173.811)" fill="#3b2d57"/>
          <path id="Tracé_701" data-name="Tracé 701" d="M693.486,181.6h-5.3l-4.528,12.646L678.8,181.6h-8.6l9.48,21.04c-1.068,2.853-1.988,3.645-5.007,3.645H672.5v6.792h2.706c5.927,0,8.762-2.54,11.855-9.554l7.786-17.745Z" transform="translate(-605.847 -174.219)" fill="#3b2d57"/>
          <path id="Tracé_702" data-name="Tracé 702" d="M843.821,181.6l-7.308,22.936h-6.369L825.6,194.265l-4.436,10.272h-6.369L807.3,181.6h8.283l3.479,12.039,5.43-11.965h2.135l5.725,12.075,3.424-12.149h8.063Z" transform="translate(-717.71 -174.219)" fill="#3b2d57"/>
          <path id="Tracé_703" data-name="Tracé 703" d="M1143.3,141.5h7.9v30.318h-7.9Z" transform="translate(-991.86 -141.5)" fill="#3b2d57"/>
          <path id="Tracé_704" data-name="Tracé 704" d="M1208.2,141.5h7.9v30.318h-7.9Z" transform="translate(-1044.813 -141.5)" fill="#3b2d57"/>
        </g>
        <path id="Tracé_705" data-name="Tracé 705" d="M1007.862,177.5a12.4,12.4,0,0,0-9.775,4.381l-2.688,8.412c.295,6.719,5.486,11.652,12.444,11.652s10.4-3.277,12.02-8.5H1012a4.6,4.6,0,0,1-4.142,2.154,4.916,4.916,0,0,1-4.676-3.994h17.027a13.61,13.61,0,0,0,.166-2.1h0C1020.379,182.765,1015.262,177.5,1007.862,177.5Zm-4.547,9.719a4.45,4.45,0,0,1,4.547-3.534,4.674,4.674,0,0,1,4.731,3.534Z" transform="translate(-842.468 -170.873)" fill="#3b2d57"/>
      </g>
    </g>
  </g>
</svg>
